<?xml version="1.0" encoding="utf-8"?>
<!-- Generator: Adobe Illustrator 20.0.0, SVG Export Plug-In . SVG Version: 6.00 Build 0)  -->
<svg version="1.1" xmlns="http://www.w3.org/2000/svg" xmlns:xlink="http://www.w3.org/1999/xlink" x="0px" y="0px" width="48px"
	 height="48px" viewBox="0 0 48 48" enable-background="new 0 0 48 48" xml:space="preserve">
<g id="Grid" display="none">
	<g display="inline">
		<g opacity="0.2">
			<path fill="#FF0000" d="M44,4v40H4V4H44 M48,0H0v48h48V0L48,0z"/>
		</g>
		<g opacity="0.2">
			<path fill="#00FF00" d="M43.5,8.5v31h-39v-31H43.5 M44,8H4v32h40V8L44,8z"/>
		</g>
		<g opacity="0.2">
			<path fill="#FF0000" d="M24,4.5c10.8,0,19.5,8.7,19.5,19.5c0,10.8-8.7,19.5-19.5,19.5C13.2,43.5,4.5,34.8,4.5,24
				C4.5,13.2,13.2,4.5,24,4.5 M24,4L24,4C13,4,4,13,4,24v0c0,11,9,20,20,20h0c11,0,20-9,20-20v0C44,13,35,4,24,4L24,4z"/>
		</g>
		<g opacity="0.2">
			<path fill="#0000FF" d="M39.5,8.5v31h-31v-31H39.5 M40,8H8v32h32V8L40,8z"/>
		</g>
		<g opacity="0.2">
			<path fill="#00FF00" d="M39.5,4.5v39h-31v-39H39.5 M40,4H8v40h32V4L40,4z"/>
		</g>
		<g opacity="0.2">
			<path fill="#0000FF" d="M33.5,14.5v19h-19v-19H33.5 M34,14H14v20h20V14L34,14z"/>
		</g>
	</g>
</g>
<g id="Icons">
	<path fill="none" stroke="#000000" stroke-width="2" stroke-miterlimit="10" d="M35.4,39.4c-3.8,2.9-8.7,4.4-13.9,3.9
		C10.9,42.1,3.2,32.6,4.4,21.9S15.1,3.6,25.8,4.8c3.6,0.4,7,1.8,9.7,3.9"/>
	<g>
		<polyline fill="none" stroke="#000000" stroke-width="2" stroke-miterlimit="10" points="35.4,16.9 42.4,24 35.4,31.1 		"/>
		<line fill="none" stroke="#000000" stroke-width="2" stroke-miterlimit="10" x1="25" y1="24" x2="42" y2="24"/>
	</g>
</g>
<g id="Titles" display="none">
</g>
</svg>
